HIERARCHY
ROOT Hips
{
  OFFSET 0.00 0.00 0.00
  CHANNELS 6 Xposition Yposition Zposition Zrotation Xrotation Yrotation
  JOINT LeftUpLeg
  {
    OFFSET 3.43 0.00 0.00
    CHANNELS 3 Zrotation Xrotation Yrotation
    JOINT LeftLowLeg
    {
      OFFSET 0.00 -18.47 0.00
      CHANNELS 3 Zrotation Xrotation Yrotation
      JOINT LeftFoot
      {
        OFFSET 0.00 -17.95 0.00
        CHANNELS 3 Zrotation Xrotation Yrotation
        End Site
        {
          OFFSET 0.00 -3.12 0.00
        }
      }
    }
  }
  JOINT RightUpLeg
  {
    OFFSET -3.43 0.00 0.00
    CHANNELS 3 Zrotation Xrotation Yrotation
    JOINT RightLowLeg
    {
      OFFSET 0.00 -18.47 0.00
      CHANNELS 3 Zrotation Xrotation Yrotation
      JOINT RightFoot
      {
        OFFSET 0.00 -17.95 0.00
        CHANNELS 3 Zrotation Xrotation Yrotation
        End Site
        {
          OFFSET 0.00 -3.12 0.00
        }
      }
    }
  }
  JOINT Chest
  {
    OFFSET 0.00 4.57 0.00
    CHANNELS 3 Zrotation Xrotation Yrotation
    JOINT LeftCollar
    {
      OFFSET 1.06 15.33 1.76
      CHANNELS 3 Zrotation Xrotation Yrotation
      JOINT LeftUpArm
      {
        OFFSET 5.81 0.00 0.00
        CHANNELS 3 Zrotation Xrotation Yrotation
        JOINT LeftLowArm
        {
          OFFSET 0.00 -12.08 0.00
          CHANNELS 3 Zrotation Xrotation Yrotation
          JOINT LeftHand
          {
            OFFSET 0.00 -9.82 0.00
            CHANNELS 3 Zrotation Xrotation Yrotation
            End Site
            {
              OFFSET 0.00 -7.37 0.00
            }
          }
        }
      }
    }
    JOINT RightCollar
    {
      OFFSET -1.06 15.33 1.76
      CHANNELS 3 Zrotation Xrotation Yrotation
      JOINT RightUpArm
      {
        OFFSET -5.81 0.00 0.00
        CHANNELS 3 Zrotation Xrotation Yrotation
        JOINT RightLowArm
        {
          OFFSET 0.00 -12.08 0.00
          CHANNELS 3 Zrotation Xrotation Yrotation
          JOINT RightHand
          {
            OFFSET 0.00 -9.82 0.00
            CHANNELS 3 Zrotation Xrotation Yrotation
            End Site
            {
              OFFSET 0.00 -7.37 0.00
            }
          }
        }
      }
    }
    JOINT Neck
    {
      OFFSET 0.00 17.62 0.00
      CHANNELS 3 Zrotation Xrotation Yrotation
      JOINT Head
      {
        OFFSET 0.00 5.19 0.00
        CHANNELS 3 Zrotation Xrotation Yrotation
        End Site
        {
          OFFSET 0.00 4.14 0.00
        }
      }
    }
  }
}
MOTION
Frames:	25
Frame Time:	0.03
10.63 38.06 -33.43 2.14 22.54 -112.19 30.23 -21.56 20.67 0.23 56.17 -0.27 4.79 -26.76 -0.33 -164.09 -85.51 -164.80 -178.71 84.30 178.80 -21.21 -20.68 -16.03 3.14 44.46 7.93 -18.10 0.62 -0.15 38.14 -68.01 -73.94 179.08 -77.30 179.35 57.24 -27.53 -73.45 6.66 -0.98 -3.82 -111.87 -32.05 22.99 -179.71 -46.17 179.96 -46.60 -21.86 75.05 21.18 -8.62 -27.69 14.66 -25.30 -21.98 
10.70 37.55 -34.06 -1.30 25.20 -109.44 33.93 -19.62 22.72 0.26 59.93 -0.30 4.69 -28.85 1.34 -170.54 -84.36 -172.67 -179.01 82.59 179.09 -19.03 -19.83 -15.86 4.08 44.47 9.77 -16.90 0.68 -0.39 25.97 -68.25 -85.03 179.18 -75.69 179.46 61.36 -34.70 -67.53 8.53 -0.88 -3.48 -118.81 -28.52 21.55 -179.74 -39.58 179.92 -53.62 -23.86 76.61 20.04 -5.16 -29.30 16.43 -25.03 -22.89 
10.58 37.00 -34.63 -5.00 27.81 -107.01 37.42 -17.48 23.30 0.29 63.71 -0.34 4.49 -31.03 3.02 -171.18 -85.54 -175.88 -179.05 82.21 179.14 -16.54 -19.77 -15.19 4.71 44.50 11.84 -16.25 0.69 -0.47 15.73 -66.96 -94.71 179.08 -77.30 179.35 65.99 -40.26 -61.64 10.80 -0.87 -3.43 -123.07 -25.26 22.82 -179.75 -36.88 179.90 -57.45 -27.99 73.13 18.24 -2.57 -30.63 18.52 -23.74 -24.66 
10.31 36.54 -35.09 -8.28 29.94 -105.19 40.25 -15.31 22.80 0.32 66.69 -0.38 4.58 -32.97 4.66 -160.64 -88.44 -168.55 -178.97 82.86 179.06 -14.48 -20.30 -14.11 5.16 44.53 13.46 -16.28 0.64 -0.34 9.17 -65.07 -101.54 178.58 -81.76 178.85 70.66 -44.30 -56.09 12.67 -0.89 -3.47 -123.58 -23.30 27.07 -179.74 -38.16 179.91 -60.97 -34.11 68.06 16.32 -1.57 -31.60 19.96 -21.71 -26.81 
9.78 36.26 -35.45 -10.57 31.19 -104.09 41.59 -13.08 21.77 0.35 68.29 -0.40 4.18 -34.84 6.05 -15.48 -86.95 -26.87 -178.76 84.07 178.85 -13.64 -20.91 -12.80 5.93 44.49 13.54 -17.27 0.56 -0.06 5.43 -63.07 -106.13 157.28 -89.47 157.53 75.57 -47.44 -50.48 13.20 -0.81 -3.25 -118.82 -22.88 33.97 -179.72 -43.66 179.94 -66.34 -40.75 61.03 14.78 -3.00 -32.43 19.37 -18.91 -28.90 
8.90 36.25 -35.73 -11.41 31.15 -103.66 41.09 -10.84 20.60 0.34 67.95 -0.39 3.57 -36.40 7.06 -13.90 -81.30 -28.67 -178.37 85.50 178.45 -13.83 -20.80 -11.28 7.56 44.30 11.03 -19.18 0.61 -0.04 4.09 -61.32 -108.01 1.25 -80.64 1.48 77.17 -49.35 -47.77 11.73 -0.59 -2.65 -108.88 -23.21 40.30 -179.66 -53.11 -179.98 -65.80 -47.01 56.75 14.44 -7.08 -33.05 15.62 -15.55 -29.99 
7.69 36.48 -35.97 -11.01 29.85 -103.57 38.80 -8.57 19.31 0.31 65.69 -0.36 2.80 -37.54 7.82 -17.77 -74.85 -35.56 -177.75 86.74 177.83 -13.55 -19.49 -9.46 9.71 43.92 6.00 -21.19 0.82 -0.35 4.27 -60.15 -107.41 0.58 -69.39 0.79 77.66 -50.12 -46.76 8.80 -0.34 -1.85 -95.02 -23.83 43.61 -179.49 -66.58 -179.78 -60.61 -51.18 50.97 15.54 -12.64 -32.75 9.47 -12.11 -29.70 
6.15 36.97 -36.20 -9.90 27.49 -103.82 34.59 -5.62 17.75 0.27 61.13 -0.31 1.57 -37.95 8.69 -20.90 -67.44 -41.46 -175.87 88.22 175.95 -11.21 -16.01 -7.66 11.67 43.45 -0.97 -22.19 1.14 -0.96 6.32 -59.43 -103.50 0.38 -57.22 0.57 76.46 -48.27 -49.18 5.34 -0.18 -1.15 -77.60 -26.04 43.42 -177.79 -84.72 -178.05 -47.39 -53.07 51.81 17.70 -17.92 -30.74 2.61 -8.94 -28.21 
4.47 37.66 -36.44 -8.66 24.54 -105.13 28.99 -1.29 15.80 0.22 54.01 -0.25 1.20 -37.16 10.82 -20.50 -59.71 -43.31 -5.46 88.65 5.54 -6.67 -9.59 -7.86 12.77 42.48 -8.29 -21.29 1.32 -1.43 11.14 -57.95 -94.08 0.30 -47.05 0.47 63.65 -37.76 -64.57 2.28 -0.18 -0.94 -58.07 -31.99 43.03 -0.69 -73.00 -0.92 -29.73 -49.87 62.63 19.35 -20.36 -27.23 -2.85 -6.32 -25.74 
2.89 38.42 -36.69 -7.62 21.43 -108.22 22.22 4.39 13.73 0.18 44.69 -0.21 1.68 -34.88 14.89 -16.79 -52.65 -40.78 -1.03 82.83 1.10 -1.34 -1.52 -11.77 11.43 34.36 -12.90 -17.80 -0.07 1.49 7.95 -50.21 -86.52 0.25 -36.41 0.40 38.61 -22.51 -78.95 -0.65 -0.22 -0.83 -33.90 -35.37 51.48 -0.30 -46.55 -0.47 -18.25 -41.27 70.27 17.39 -13.28 -26.10 -5.82 -4.57 -22.97 
1.40 39.16 -36.98 -6.89 18.08 -113.65 13.90 11.71 11.66 0.15 32.32 -0.16 3.15 -30.60 21.18 -11.03 -45.57 -34.75 -0.46 73.65 0.52 3.30 5.90 -18.29 9.97 26.06 -15.83 -16.52 -0.23 1.82 6.14 -41.96 -75.04 0.22 -23.99 0.34 23.93 -14.69 -85.56 -3.16 -0.06 0.13 -4.99 -38.16 63.04 -0.21 -8.31 -0.28 -12.48 -32.68 68.22 12.07 -4.32 -23.86 -6.89 -4.05 -19.95 
-0.05 39.54 -37.33 -6.61 14.28 -122.15 3.84 20.05 10.11 0.13 17.26 -0.12 5.32 -24.48 28.54 -5.78 -38.37 -27.26 -0.28 62.58 0.33 5.26 10.99 -23.19 10.39 19.48 -13.43 -19.61 0.67 -0.13 7.60 -37.53 -65.01 0.21 -17.88 0.32 20.91 -11.19 -87.31 -2.26 0.77 3.72 -1.06 -34.71 57.68 -0.20 0.36 -0.25 -9.26 -10.31 62.56 3.32 2.84 -22.81 -7.12 -5.37 -16.75 
-1.46 39.80 -37.73 -7.15 9.90 -133.42 -5.81 21.04 9.54 0.13 13.76 -0.11 4.96 -18.84 34.24 -3.27 -30.57 -20.76 -0.20 49.94 0.23 3.13 13.95 -22.07 11.39 14.14 -8.07 -22.16 1.20 -1.09 8.69 -35.55 -67.29 0.21 -14.84 0.31 22.98 -7.14 -88.22 -2.17 1.33 6.16 -0.96 -30.80 48.40 -0.20 1.84 -0.25 -10.90 3.41 58.90 -6.30 9.32 -20.38 -7.28 -8.70 -13.87 
-2.88 40.13 -38.24 -9.07 5.27 -146.37 -12.64 12.58 10.19 0.14 24.77 -0.14 -0.26 -15.23 37.02 -4.69 -24.32 -17.22 -0.17 41.36 0.19 -5.17 4.06 -14.92 13.04 11.01 -1.22 -22.05 1.40 -1.53 6.89 -34.44 -79.91 0.21 -12.86 0.30 24.55 0.52 -90.01 -2.41 1.72 7.97 -2.14 -26.51 38.34 -0.20 2.17 -0.24 -17.06 6.13 58.12 -16.44 13.70 -16.95 -7.70 -13.31 -11.51 
-4.20 39.79 -38.82 -11.70 1.68 -158.68 -15.23 3.66 11.88 0.16 35.73 -0.17 -5.64 -14.48 36.80 -8.57 -21.30 -16.41 -0.16 36.46 0.17 -9.12 -7.76 -7.12 14.20 9.71 3.27 -22.33 0.79 -0.19 9.07 -34.19 -90.02 0.21 -18.06 0.32 20.71 12.47 -85.21 -4.81 1.58 8.50 -0.35 -23.48 31.96 -0.20 2.17 -0.24 -22.01 2.87 58.22 -25.36 15.16 -11.71 -8.18 -17.98 -9.33 
-5.38 39.10 -39.40 -14.24 -0.67 -168.93 -14.33 -1.53 13.90 0.17 41.37 -0.19 -9.41 -16.06 34.91 -14.13 -25.50 -17.73 -0.17 42.50 0.20 -8.74 -15.79 0.88 14.90 9.99 4.24 -22.50 0.25 0.98 13.63 -34.32 -91.32 0.23 -25.72 0.35 15.42 22.81 -66.46 -7.83 1.27 8.52 2.38 -22.35 29.31 -0.20 2.17 -0.24 -24.59 -2.40 57.98 -32.60 13.09 -6.27 -8.30 -22.08 -6.95 
-6.47 38.13 -39.91 -15.93 -2.31 -177.19 -10.78 -3.39 15.02 0.17 42.16 -0.19 -12.70 -20.18 33.43 -19.18 -32.02 -19.78 -0.21 51.57 0.24 -7.53 -21.42 7.95 15.74 10.74 2.22 -22.55 0.00 1.52 18.45 -33.01 -85.26 0.24 -31.44 0.38 10.58 28.13 -53.08 -10.96 0.89 8.25 5.34 -22.92 28.92 -0.20 2.17 -0.24 -25.17 -8.10 57.09 -38.26 8.59 -1.57 -7.59 -25.72 -3.97 
-7.49 37.04 -40.25 -16.42 -3.80 176.48 -5.40 -2.84 14.44 0.16 37.92 -0.18 -16.49 -24.73 33.79 -22.47 -38.23 -21.48 -0.25 59.09 0.29 -6.23 -25.40 12.96 16.87 11.35 -1.60 -22.56 -0.10 1.73 22.04 -30.41 -76.14 0.25 -34.58 0.39 5.96 29.19 -45.51 -13.57 0.55 7.62 8.27 -24.86 29.71 -0.20 2.05 -0.24 -24.46 -13.78 54.74 -41.80 3.16 2.04 -6.19 -29.00 -0.53 
-8.45 35.96 -40.41 -16.15 -5.37 171.83 0.74 -0.50 12.63 0.15 28.97 -0.15 -19.84 -26.99 36.23 -24.71 -43.97 -23.05 -0.31 65.25 0.36 -4.97 -28.04 16.36 17.56 11.84 -6.48 -22.50 0.23 1.02 27.22 -26.23 -65.49 0.27 -41.75 0.43 1.54 30.83 -39.52 -14.90 0.30 6.54 11.17 -27.50 32.29 -0.20 1.50 -0.25 -23.98 -18.95 49.58 -42.55 -2.21 5.12 -4.88 -32.11 2.87 
-9.43 34.90 -40.44 -15.73 -7.00 168.18 7.57 0.23 10.51 0.14 21.59 -0.13 -18.34 -23.31 39.60 -27.13 -49.35 -25.04 -0.38 70.52 0.44 -3.65 -29.75 19.11 17.14 12.13 -11.29 -22.39 0.64 0.13 31.43 -21.67 -56.84 0.32 -50.02 0.49 -4.11 31.73 -31.33 -14.76 0.16 5.18 13.36 -29.46 36.73 -0.20 -0.59 -0.25 -25.48 -22.31 40.76 -40.31 -6.42 8.25 -4.41 -35.14 5.95 
-10.35 34.10 -40.39 -15.71 -8.48 165.22 14.12 -2.91 9.08 0.14 20.45 -0.13 -10.23 -12.84 39.32 -30.08 -53.78 -27.35 -0.47 74.18 0.53 -2.37 -30.40 21.42 15.22 12.60 -14.84 -22.32 0.84 -0.30 33.68 -18.64 -51.71 0.37 -56.81 0.56 -10.24 29.85 -20.55 -13.40 0.14 4.21 13.42 -29.80 40.97 -0.20 -5.01 -0.27 -29.42 -22.33 29.25 -35.72 -9.17 10.99 -4.95 -37.46 8.23 
-11.24 33.35 -40.28 -16.16 -9.64 163.34 18.85 -4.23 8.60 0.13 15.87 -0.11 -6.12 -5.86 36.13 -34.47 -57.59 -30.56 -0.59 77.53 0.66 -1.17 -30.69 22.87 12.00 12.90 -17.34 -22.28 0.93 -0.48 36.10 -16.72 -48.78 0.48 -65.07 0.69 -16.07 26.71 -9.20 -12.69 0.02 2.98 11.49 -27.01 43.61 -0.21 -15.74 -0.31 -32.02 -16.29 18.48 -30.03 -10.95 13.46 -6.14 -38.15 9.47 
-12.22 32.45 -40.13 -16.77 -10.51 162.37 23.32 -3.20 8.92 0.13 8.08 -0.10 -10.14 -5.93 34.22 -40.69 -61.22 -34.77 -0.86 81.40 0.93 0.17 -30.95 23.11 8.70 13.71 -17.54 -22.23 1.06 -0.77 37.81 -16.21 -47.26 0.84 -76.06 1.07 -21.99 23.80 0.94 -12.68 -0.11 1.92 4.58 -20.26 43.30 -0.25 -37.00 -0.40 -32.06 -2.71 9.08 -25.95 -12.84 13.61 -6.43 -36.89 9.37 
-13.15 31.70 -40.03 -17.26 -11.17 162.01 25.86 -4.58 10.12 0.13 4.23 -0.09 -18.52 -9.18 33.06 -46.62 -63.99 -38.26 -1.28 84.27 1.36 1.56 -30.81 22.09 5.42 14.87 -15.51 -21.62 1.27 -1.29 36.66 -17.56 -47.25 2.56 -85.44 2.80 -27.40 20.22 7.84 -11.47 -0.04 2.06 -4.88 -13.51 42.96 -0.37 -56.48 -0.56 -31.20 11.77 -1.23 -24.78 -15.04 11.48 -4.63 -34.21 7.81 
-14.00 31.20 -39.95 -17.31 -11.71 162.02 27.66 -6.84 11.72 0.13 2.56 -0.08 -27.17 -12.70 31.32 -50.46 -65.99 -39.73 -1.76 85.81 1.83 3.03 -30.33 20.12 2.25 15.87 -12.50 -21.31 1.43 -1.66 33.95 -20.18 -49.00 174.84 -87.74 175.09 -31.61 16.79 11.21 -10.47 0.10 2.67 -14.17 -7.72 44.01 -0.66 -71.99 -0.88 -27.98 24.29 -11.67 -26.47 -16.77 8.26 -0.25 -31.15 4.69 
